<svg xmlns="http://www.w3.org/2000/svg" viewBox="0 0 32 32" id="Pee-Pis-Urinating-Wee--Streamline-Nasty" height="32" width="32">
<g>
  <path d="M8.533333333333333 5.866666666666666a0.5013333333333333 0.5013333333333333 0 0 0 -0.5333333333333333 -0.5333333333333333H2.6666666666666665a0.5013333333333333 0.5013333333333333 0 0 0 -0.5333333333333333 0.5333333333333333c0 1.2266666666666666 1.4400000000000002 2.6666666666666665 3.2 2.6666666666666665s3.2 -1.4400000000000002 3.2 -2.6666666666666665Zm-5.173333333333333 0.5333333333333333h3.893333333333333a2.3093333333333335 2.3093333333333335 0 0 1 -3.893333333333333 0Z" fill="#000000" fill-rule="evenodd" stroke-width="0.5333"></path>
  <path d="M18.453333333333333 8.106666666666666a5.008 5.008 0 0 0 -0.96 0.64 0.5760000000000001 0.5760000000000001 0 0 0 -0.10666666666666667 0.7466666666666666 0.48533333333333334 0.48533333333333334 0 0 0 0.4266666666666667 0.21333333333333335 0.7573333333333333 0.7573333333333333 0 0 0 0.32 -0.10666666666666667 4.6080000000000005 4.6080000000000005 0 0 1 0.8533333333333334 -0.5333333333333333 0.5920000000000001 0.5920000000000001 0 0 0 0.21333333333333335 -0.7466666666666666 0.5333333333333333 0.5333333333333333 0 0 0 -0.7466666666666666 -0.21333333333333335" fill="#000000" fill-rule="evenodd" stroke-width="0.5333"></path>
  <path d="M31.466666666666665 21.92a0.5013333333333333 0.5013333333333333 0 0 0 -0.5333333333333333 0.5333333333333333v1.0666666666666667a0.5333333333333333 0.5333333333333333 0 0 0 1.0666666666666667 0v-1.0666666666666667a0.5333333333333333 0.5333333333333333 0 0 0 -0.5333333333333333 -0.5333333333333333" fill="#000000" fill-rule="evenodd" stroke-width="0.5333"></path>
  <path d="M16 11.04a0.5333333333333333 0.5333333333333333 0 0 0 -0.7466666666666666 0.16 6.08 6.08 0 0 0 -0.5333333333333333 1.0133333333333332 0.5333333333333333 0.5333333333333333 0 0 0 0.26666666666666666 0.6933333333333334 0.32 0.32 0 0 0 0.21333333333333335 0.05333333333333334 0.5333333333333333 0.5333333333333333 0 0 0 0.48 -0.32c0.16 -0.32 0.32 -0.5866666666666667 0.48 -0.8533333333333334a0.5760000000000001 0.5760000000000001 0 0 0 -0.16 -0.7466666666666666" fill="#000000" fill-rule="evenodd" stroke-width="0.5333"></path>
  <path d="M31.466666666666665 17.706666666666667a0.5013333333333333 0.5013333333333333 0 0 0 -0.5333333333333333 0.5333333333333333v1.0666666666666667a0.5333333333333333 0.5333333333333333 0 0 0 1.0666666666666667 0v-1.0666666666666667a0.5333333333333333 0.5333333333333333 0 0 0 -0.5333333333333333 -0.5333333333333333" fill="#000000" fill-rule="evenodd" stroke-width="0.5333"></path>
  <path d="M27.040000000000003 7.946666666666666a8.208 8.208 0 0 0 -1.0133333333333332 -0.4266666666666667 0.5333333333333333 0.5333333333333333 0 0 0 -0.3733333333333333 1.0133333333333332c0.32 0.10666666666666667 0.64 0.26666666666666666 0.9066666666666666 0.3733333333333333a0.4 0.4 0 0 0 0.26666666666666666 0.05333333333333334 0.56 0.56 0 0 0 0.48 -0.26666666666666666 0.5706666666666667 0.5706666666666667 0 0 0 -0.26666666666666666 -0.7466666666666666" fill="#000000" fill-rule="evenodd" stroke-width="0.5333"></path>
  <path d="M31.41333333333333 15.626666666666667h0.05333333333333334a0.624 0.624 0 0 0 0.48 -0.5866666666666667 8.277333333333333 8.277333333333333 0 0 0 -0.21333333333333335 -1.12 0.5333333333333333 0.5333333333333333 0 0 0 -1.0133333333333332 0.26666666666666666l0.16 0.96a0.5653333333333334 0.5653333333333334 0 0 0 0.5333333333333333 0.48" fill="#000000" fill-rule="evenodd" stroke-width="0.5333"></path>
  <path d="M31.466666666666665 30.4a0.5013333333333333 0.5013333333333333 0 0 0 -0.5333333333333333 0.5333333333333333v0.5333333333333333a0.5333333333333333 0.5333333333333333 0 0 0 1.0666666666666667 0v-0.5333333333333333a0.5013333333333333 0.5013333333333333 0 0 0 -0.5333333333333333 -0.5333333333333333" fill="#000000" fill-rule="evenodd" stroke-width="0.5333"></path>
  <path d="M29.706666666666667 9.973333333333333a0.5333333333333333 0.5333333333333333 0 0 0 -0.8 0.6933333333333334 7.632000000000001 7.632000000000001 0 0 1 0.5866666666666667 0.8 0.48533333333333334 0.48533333333333334 0 0 0 0.4266666666666667 0.21333333333333335 0.7573333333333333 0.7573333333333333 0 0 0 0.32 -0.10666666666666667 0.5333333333333333 0.5333333333333333 0 0 0 0.16 -0.7466666666666666 9.738666666666667 9.738666666666667 0 0 0 -0.6933333333333334 -0.8533333333333334" fill="#000000" fill-rule="evenodd" stroke-width="0.5333"></path>
  <path d="M22.72 6.933333333333334a7.957333333333334 7.957333333333334 0 0 0 -1.12 0.10666666666666667 0.5333333333333333 0.5333333333333333 0 0 0 -0.4266666666666667 0.5866666666666667 0.5653333333333334 0.5653333333333334 0 0 0 0.5333333333333333 0.48h0.05333333333333334c0.32 -0.05333333333333334 0.64 -0.05333333333333334 1.0133333333333332 -0.10666666666666667a0.5333333333333333 0.5333333333333333 0 0 0 0.5333333333333333 -0.5333333333333333 0.6186666666666666 0.6186666666666666 0 0 0 -0.5866666666666667 -0.5333333333333333" fill="#000000" fill-rule="evenodd" stroke-width="0.5333"></path>
  <path d="M31.466666666666665 26.186666666666667a0.5013333333333333 0.5013333333333333 0 0 0 -0.5333333333333333 0.5333333333333333v1.0666666666666667a0.5333333333333333 0.5333333333333333 0 0 0 1.0666666666666667 0v-1.0666666666666667a0.5013333333333333 0.5013333333333333 0 0 0 -0.5333333333333333 -0.5333333333333333" fill="#000000" fill-rule="evenodd" stroke-width="0.5333"></path>
  <path d="M8.48 9.653333333333334A5.333333333333333 5.333333333333333 0 1 0 0 5.333333333333333a5.381333333333333 5.381333333333333 0 0 0 2.7199999999999998 4.64l3.36 7.466666666666667a7.248 7.248 0 0 1 0.4266666666666667 3.68L4.8 29.173333333333336a2.0853333333333333 2.0853333333333333 0 0 0 0.3733333333333333 1.92 2.2506666666666666 2.2506666666666666 0 0 0 1.7599999999999998 0.8533333333333334c1.3333333333333333 0 2.1866666666666665 -0.64 2.6666666666666665 -1.9733333333333334v-0.05333333333333334L11.306666666666667 21.333333333333332a9.269333333333332 9.269333333333332 0 0 0 -0.05333333333333334 -3.2l0.32 0.32a2.0586666666666664 2.0586666666666664 0 0 0 2.8800000000000003 0 2.0266666666666664 2.0266666666666664 0 0 0 0 -2.8800000000000003L8.48 9.653333333333334ZM1.0666666666666667 5.333333333333333a4.266666666666667 4.266666666666667 0 1 1 4.266666666666667 4.266666666666667 4.266666666666667 4.266666666666667 0 0 1 -4.266666666666667 -4.266666666666667Zm12.586666666666668 12.426666666666668a0.9973333333333334 0.9973333333333334 0 0 1 -1.3866666666666667 0l-4.906666666666666 -4.906666666666666a0.5333333333333333 0.5333333333333333 0 0 0 -0.7466666666666666 0.7466666666666666l2.8800000000000003 2.8800000000000003 0.3733333333333333 0.9066666666666666a7.637333333333333 7.637333333333333 0 0 1 0.3733333333333333 3.7866666666666666l-1.7066666666666668 8.533333333333333a1.536 1.536 0 0 1 -1.6 1.2266666666666666 1.216 1.216 0 0 1 -0.9066666666666666 -0.4266666666666667 1.2266666666666666 1.2266666666666666 0 0 1 -0.16 -1.0666666666666667l1.7066666666666668 -8.053333333333333a8.149333333333333 8.149333333333333 0 0 0 -0.48 -4.373333333333333L4.16 10.506666666666666a4.16 4.16 0 0 0 1.1733333333333333 0.16 5.215999999999999 5.215999999999999 0 0 0 2.1866666666666665 -0.48l6.1866666666666665 6.1866666666666665a0.9546666666666667 0.9546666666666667 0 0 1 -0.05333333333333334 1.3866666666666667Z" fill="#000000" fill-rule="evenodd" stroke-width="0.5333"></path>
</g>
</svg>
