<?xml version="1.0" encoding="UTF-8"?>
<svg version="1.1" xmlns="http://www.w3.org/2000/svg" width="240" height="240">
    <path d="M0 0 C0.88324951 0.04179382 1.76649902 0.08358765 2.67651367 0.12664795 C5.17909708 0.24702106 7.68136892 0.37240942 10.18359375 0.5 C10.9150914 0.53541901 11.64658905 0.57083801 12.4002533 0.60733032 C25.8819875 1.3194875 25.8819875 1.3194875 27.5625 3 C27.6875 6 27.6875 6 27.5625 9 C23.47223056 13.09026944 9.45688845 11.12748057 3.94224548 11.14663696 C2.63784012 11.14618378 1.33343475 11.14573059 -0.01049805 11.14526367 C-1.43341152 11.1482646 -2.8563242 11.15166924 -4.27923584 11.15544128 C-8.117937 11.16421021 -11.95661579 11.16661694 -15.79532599 11.16725707 C-18.21656311 11.16797388 -20.63779478 11.17012041 -23.05903053 11.17275429 C-31.57426937 11.1819982 -40.08949265 11.1860921 -48.60473633 11.18530273 C-55.56634857 11.18477372 -62.52790415 11.19173882 -69.48950195 11.20581055 C-136.39988765 11.33791465 -136.39988765 11.33791465 -161.64453125 10.11328125 C-162.90715569 10.05486085 -162.90715569 10.05486085 -164.1952877 9.99526024 C-177.06569789 9.37180211 -177.06569789 9.37180211 -179.4375 7 C-179.625 4.4375 -179.625 4.4375 -179.4375 2 C-177.24815231 -0.18934769 -172.29500569 0.44501339 -169.25 0.24609375 C-168.27435593 0.18073929 -167.29871185 0.11538483 -166.29350281 0.04804993 C-163.0087001 -0.1652843 -159.72336067 -0.36614703 -156.4375 -0.5625 C-155.30059723 -0.63069946 -154.16369446 -0.69889893 -152.99234009 -0.76916504 C-102.10583192 -3.7246823 -50.8824198 -2.41926998 0 0 Z " fill="#000000" transform="translate(212.4375,116)"/>
    <path d="M0 0 C0.66 1.65 1.32 3.3 2 5 C1.24203125 5.68578125 0.4840625 6.3715625 -0.296875 7.078125 C-14.31993644 19.91336559 -27.60675763 33.51562806 -41 47 C-39.76455519 50.49201112 -38.49668447 52.89106216 -35.90234375 55.53125 C-35.27440918 56.17046387 -34.64647461 56.80967773 -33.99951172 57.46826172 C-33.31904785 58.13873535 -32.63858398 58.80920898 -31.9375 59.5 C-31.22867676 60.2027002 -30.51985352 60.90540039 -29.78955078 61.62939453 C-19.62090903 71.5076951 -8.09810186 79.70174615 3.53564453 87.75537109 C6.65244466 89.93192863 9.58708364 92.04432495 12 95 C11.75 98.75 11.75 98.75 11 102 C6.20649028 102.56028036 3.46504709 100.70537947 -0.3125 98.0625 C-5.45652421 94.595546 -10.67371888 91.45852034 -16.125 88.5 C-29.756184 80.97996457 -49.68437253 68.06249206 -56 53 C-56.91628656 47.81945675 -56.74238607 43.33054942 -53.6875 38.9375 C-49.87439326 34.49770211 -45.32597358 30.96662016 -40.73095703 27.37353516 C-38.05754147 25.25214786 -35.44082499 23.06352912 -32.81616211 20.88232422 C-7.28302836 -0.32369015 -7.28302836 -0.32369015 0 0 Z " fill="#000000" transform="translate(56,69)"/>
</svg>
